PathFileType	4	(X/Y/Z)	2_2_9_p0_0-333_filt_butterworth.trc
DataRate	CameraRate	NumFrames	NumMarkers	Units	OrigDataRate	OrigDataStartFrame	OrigNumFrames
59.0	59.0	6	27	m	59.0	41	333
Frame#	Time	RHip			RKnee			RAnkle			RBigToe			RSmallToe			RHeel			LHip			LKnee			LAnkle			LBigToe			LSmallToe			LHeel			Neck			Head			Nose			RShoulder			RElbow			RWrist			RThumb			RIndex			RPinky			LShoulder			LElbow			LWrist			LThumb			LIndex			LPinky			
		X1	Y1	Z1	X2	Y2	Z2	X3	Y3	Z3	X4	Y4	Z4	X5	Y5	Z5	X6	Y6	Z6	X7	Y7	Z7	X8	Y8	Z8	X9	Y9	Z9	X10	Y10	Z10	X11	Y11	Z11	X12	Y12	Z12	X13	Y13	Z13	X14	Y14	Z14	X15	Y15	Z15	X16	Y16	Z16	X17	Y17	Z17	X18	Y18	Z18	X19	Y19	Z19	X20	Y20	Z20	X21	Y21	Z21	X22	Y22	Z22	X23	Y23	Z23	X24	Y24	Z24	X25	Y25	Z25	X26	Y26	Z26	X27	Y27	Z27	
41	0.6949152542372882	0.31208043799224694	0.5581199560177046	1.01129293483127	0.31069505019892185	0.7156236971655738	1.4055893178287462	0.2838885099833465	0.8973461856443572	1.8212026414275604	0.29766855364306904	0.655804601559742	1.8744084821150082	0.34752007403052204	0.7329291639632446	1.8939216167697346	0.27633597907030394	0.9366168556669652	1.8637186062636824	0.11178983254286173	0.5662952845234523	1.0051496758419536	0.120785093747555	0.7206345645176307	1.400954421119949	0.12870645495994415	0.939089556303347	1.8124541695067455	0.13039582676161046	0.7170758710882307	1.9037105047306382	0.08894336291295186	0.7294960072746308	1.8752938055169412	0.12913283823673227	0.9821330339006398	1.8683128831963187	0.21519173395251404	0.40291668970718675	0.425007761858158	0.23087528261034992	0.2362102027240988	0.20003782943270054	0.2387611938121431	0.25115390068835536	0.34995971117334074	0.3997140212194542	0.4231318832682078	0.47163635692904854	0.5016356702940985	0.49394480441203104	0.7143243556597944	0.34428867307735206	0.3312023306621513	0.8446072213512685	0.23973952771678908	0.2884975322564149	0.8260491829166093	0.21413227141340796	0.28646355336405827	0.8758310960545737	0.21072743408300643	0.3164761247019611	0.9153341021149093	0.03698857059828609	0.44751945771476326	0.4725168914496452	-0.057625311230553165	0.4888475006471915	0.7282816046285437	0.10579587353038593	0.3245192753122447	0.8598482056967789	0.21000735497920706	0.3202988762802237	0.8421121419424167	0.22741531173357002	0.31633443500159086	0.886689318326021	0.21358686728590612	0.31579701602221494	0.9329906652393815
42	0.711864406779661	0.31165692250966154	0.5594047180833093	1.015802584366199	0.31093931996680196	0.7169544607017049	1.4077332564040765	0.2838306155262513	0.8974483099569753	1.8207932798168736	0.29872311420158804	0.6560596705409099	1.8742516556448625	0.3475998210232232	0.7331445901801774	1.8939902990953896	0.2763058687126702	0.9366672054027423	1.8635908188998933	0.11266210082021365	0.56782443680745	1.0110409601216381	0.12136849374136438	0.7220789361309127	1.4002477928378905	0.1286057390439503	0.9393258400215019	1.8131388317658383	0.1303996738324151	0.7170424663984941	1.9037213994382576	0.0889484514538455	0.7295053167275388	1.8754073179749282	0.1285461224148144	0.982075608997621	1.8684041463185117	0.21517006271948058	0.4033182017822058	0.425028115724102	0.23086294250737532	0.23622212184665817	0.20003619136480041	0.2387487368216369	0.2513212786278596	0.3505628026403034	0.40072870313920395	0.4268676664576691	0.47247869151603894	0.49731191766459587	0.5089060320503555	0.7152464737151247	0.3473244197051457	0.33326634012906897	0.8588819821268454	0.23657285543968518	0.2912472672408693	0.8391730628321453	0.21347318523551626	0.2868477894029983	0.8964971837866059	0.2106155459369956	0.3140716624562019	0.9305286985966317	0.03700684331373074	0.44887864140178485	0.4768449122722872	-0.05224674137113433	0.4890373617312608	0.7325510399401485	0.10134406085796067	0.3261536746976219	0.8738909398862014	0.19938465134265876	0.32213403724777745	0.8582265530130408	0.2219245274881404	0.3117741834745064	0.9078417609320444	0.2115664674911885	0.3229035166519417	0.9462471039000602
43	0.7288135593220338	0.31074786370496144	0.5618533072409053	1.019530101304074	0.31120716287805866	0.7182912143328162	1.4101560046099024	0.28382061442588685	0.8974761023927502	1.820714958191414	0.29914287110402704	0.6560856925671354	1.8741819648599556	0.348021409854271	0.7349388016866373	1.8945168960644638	0.27627095102577287	0.9367074515193554	1.863411317490097	0.11452535386233188	0.5693411910122904	1.0183633477884524	0.12203008270136564	0.7240013768692569	1.4021585936648673	0.12864294824560873	0.9379031884794538	1.813754854244069	0.13034049179849627	0.7172392902473299	1.904193522092532	0.08896213858107317	0.7295362787553475	1.8755202425417652	0.12855686548954873	0.9820619558956046	1.8684676680994852	0.21515081365457014	0.4036403788219593	0.42505802754900157	0.23088488246139463	0.23648279974994568	0.20004637406235315	0.23874125327675483	0.25138966727421463	0.3508406625695616	0.4019618116526541	0.43155961701667506	0.47308572987659975	0.4901881573498942	0.5297606272959269	0.7168700827068036	0.3499615722828971	0.33724849292442766	0.8772640408110021	0.23047848450058853	0.2972615061679634	0.8606028978669464	0.21322439096277687	0.29157869420347404	0.9234781396938233	0.21317300307001602	0.31408562764551773	0.9496006185626568	0.036988718018107214	0.45010383119684555	0.4807363765771744	-0.04595164174881145	0.48696370759725227	0.7365504062268992	0.09990806481163574	0.33015799545505753	0.8929779190038665	0.18929778630785274	0.32492541773957406	0.8799912687066761	0.21784338005866274	0.31060638473656793	0.9315117604696994	0.20716204390543289	0.3387706513213604	0.9665720161502144
44	0.7457627118644068	0.3093928310534945	0.5641799456760648	1.021046593372792	0.3115319067216749	0.7193174611775744	1.4124415920784743	0.2838332318934601	0.8974734463310828	1.8208124367425336	0.29923962674555477	0.6561095394394632	1.8746479502468998	0.3488201547426038	0.7386401289197364	1.8955878078158641	0.276271958390155	0.9367196348542026	1.8634991292320469	0.11477200216473468	0.568981180780183	1.0245880639032348	0.12289468848304505	0.7264653905659403	1.4071075634719086	0.1287316535876251	0.9342909727360902	1.8149153291168183	0.1301704067368734	0.7176901015101333	1.9053757466536836	0.08897007923956383	0.7295533589964572	1.8755760514059279	0.12871649417943404	0.9820393185536337	1.8684936684270481	0.2151213945567921	0.4038548869775339	0.4250842991271213	0.23088905068943655	0.23661785613212738	0.20004571336186655	0.23873641001304258	0.2513891947362408	0.35087045912438863	0.40284241538689086	0.4350181981880986	0.47382805541477474	0.48088764411882723	0.5486373280228548	0.7191276164947301	0.35162982501752316	0.34217573058106604	0.8962898935220354	0.22525894766518073	0.30603668558245817	0.8931269320491344	0.2151008869524034	0.3010723913213585	0.9551597795028853	0.22111169364224165	0.3247425580795318	0.973808720058663	0.037038074568024076	0.4511399562181746	0.4834436820059086	-0.03918983743851378	0.48356979341484585	0.7412738335627698	0.09670348942594466	0.34053655955222856	0.9165775623228642	0.17858390617635714	0.3268098503239218	0.9083909292759358	0.21332163188324882	0.3115361831617436	0.9587275210011315	0.19983910881978692	0.35868832117178057	0.9927525078005127
45	0.7627118644067796	0.3084617981088116	0.5656921322604783	1.017992687006275	0.311924857750424	0.719806123211476	1.4141301261929575	0.28388840422589123	0.8973870417971849	1.821270704076849	0.29941300850993935	0.6564135020304827	1.8760812655589503	0.34953104945978386	0.7420062874534272	1.8965656752454378	0.27640190235253065	0.9366998172540737	1.864468429644829	0.11195300882118658	0.5659394361172875	1.025566720511879	0.12382377082365702	0.7294858412446682	1.412263475169555	0.12880637554510568	0.930112091018706	1.816476947022139	0.12993734972142862	0.7180831788219868	1.9068803091190705	0.088935669842561	0.7294863168928009	1.8753912441054053	0.12880887836745408	0.9820443523719183	1.868571304135272	0.21505989464038983	0.40400058223557594	0.42508914443714596	0.2308801821661784	0.2366163097171067	0.200039854995695	0.2387348367220986	0.25136394765764675	0.3508263766661168	0.4029689029175344	0.43561387813442576	0.4747239176910055	0.4709843721398107	0.5573808007582755	0.721158702606225	0.3540794635520114	0.35203261436492345	0.9122431767183856	0.22516282879667915	0.31567824222755625	0.9329629040522847	0.22214677403102429	0.3129526901971358	0.9885966348227787	0.23794444016915445	0.348073868368499	1.0017682692713967	0.03746131474722513	0.45237349539744554	0.48556027564755344	-0.03239221219252073	0.47891688002304766	0.7478006277180539	0.08961459756513043	0.35494161267949453	0.9399099377411494	0.1677994941617555	0.32866263590692807	0.9414188267459959	0.20518270923589765	0.31323974908370583	0.989889530788405	0.18850884415967398	0.3730406080478502	1.0208364547416193
46	0.7796610169491526	0.309078544567465	0.5669932026197035	1.0084952286629498	0.31225611316517426	0.7195688351071063	1.414290827821946	0.2840152919593536	0.8971512757120401	1.822318970422016	0.2997799934245332	0.6570191700337153	1.8782501013315547	0.3495172432455705	0.7418509159119038	1.8965553851387986	0.2767124757708682	0.9366777780961703	1.866619186569753	0.1075301651633451	0.5610864629587473	1.0181531316640573	0.12452048504157992	0.7325486484398287	1.4139338182745869	0.12880235826056985	0.9288436310752715	1.8177315975714938	0.12983308256057485	0.717953178982714	1.9079137840175653	0.0888081305030455	0.7292900645144185	1.8747755264410797	0.1287937332183281	0.9821206285622646	1.8687957770529215	0.21494315785503512	0.40413958475970874	0.425060877072426	0.23086588530046895	0.23657449923171547	0.20004176028440004	0.2387366303314561	0.2513450901062947	0.3507933376421591	0.4023169163591224	0.43310656201788983	0.4754479872709959	0.46102899786544715	0.5535526669659664	0.7226857209318173	0.35773454111372616	0.36879117871860934	0.9251492851718262	0.23139033726581132	0.3232908027984141	0.9727828982390335	0.23681716964347593	0.3223767859427449	1.0206489247820374	0.2633076247646701	0.37264076732583273	1.0315537727023756	0.038535732865474875	0.4539690918477267	0.48803702766629775	-0.026542675698893226	0.47439264138969117	0.7551535354068704	0.08072199556986685	0.3686059511495741	0.9578671847755709	0.1589152043083753	0.332624732137752	0.9759749391690622	0.19071723022812276	0.3166747446172152	1.0224614292918093	0.17086830724665886	0.37653809083869727	1.0474128903155446
